#!OML:ASF X:\für Bonn\!DataBase\2005_08_12_Daniel\c3d\Daniel.ASF
:FULLY-SPECIFIED
:DEGREES
16
root 17.0239 16.2422 17.0912 887.237 -42.6081 -181.515
lowerback 39.2106 -0.171058 2.30005
upperback 9.50652 -1.90212 -2.33703
thorax -8.63424 -1.81705 -2.78245
lowerneck -1.91101 2.35164 0.0965887
upperneck 0.843594 3.16413 -3.97589
head 0.646213 1.53776 -1.20199
rclavicle 5.26779e-014 1.43125e-014
rhumerus -35.7156 -0.447811 -86.6701
rradius 59.7739
rwrist 8.93217
rhand -32.8742 12.0858
rfingers 7.12502
rthumb -6.09277 -17.8065
lclavicle 5.26779e-014 1.43125e-014
lhumerus -29.9536 19.4843 78.6799
lradius 63.4735
lwrist -18.5259
lhand -25.8723 -0.0415138
lfingers 7.12502
lthumb 0.669085 29.9372
rfemur -1.99373 2.8859 24.1213
rtibia 52.4071
rfoot -30.9497 4.4882
rtoes -6.11408
lfemur -31.7751 -1.05483 -21.1292
ltibia 54.5014
lfoot -18.0683 -7.29335
ltoes -11.0903
17
root 16.9382 16.2539 17.0042 887.144 -42.7551 -181.56
lowerback 39.0636 -0.0694002 2.20032
upperback 9.54118 -1.81139 -2.34212
thorax -8.54089 -1.77191 -2.77641
lowerneck -1.75539 2.3091 0.0750259
upperneck 0.877579 3.10672 -4.0123
head 0.629675 1.50948 -1.21199
rclavicle -4.57205e-015 -1.98785e-014
rhumerus -35.7002 -0.35378 -86.6771
rradius 59.9682
rwrist 8.85708
rhand -33.2259 12.0405
rfingers 7.12502
rthumb -6.43231 -17.8418
lclavicle -4.57205e-015 -1.98785e-014
lhumerus -30.1292 19.5401 78.6028
lradius 63.6335
lwrist -18.645
lhand -25.7641 0.0489928
lfingers 7.12502
lthumb 0.77356 30.0273
rfemur -1.21323 2.64924 24.0156
rtibia 52.0844
rfoot -30.854 4.55692
rtoes -6.14863
lfemur -31.6929 -1.44761 -21.0731
ltibia 52.5242
lfoot -17.613 -7.52881
ltoes -11.648
18
root 16.8519 16.2613 16.9167 887.02 -42.8961 -181.584
lowerback 38.9496 0.0315317 2.11556
upperback 9.57984 -1.71877 -2.3515
thorax -8.45412 -1.72714 -2.78248
lowerneck -1.61654 2.26467 0.0428389
upperneck 0.895184 3.04645 -4.00129
head 0.609673 1.48043 -1.20514
rclavicle 3.55825e-014 -1.82882e-014
rhumerus -35.6873 -0.274297 -86.6923
rradius 60.1809
rwrist 8.76421
rhand -33.5201 12.0341
rfingers 7.12502
rthumb -6.71629 -17.8394
lclavicle 3.55825e-014 -1.82882e-014
lhumerus -30.2983 19.6319 78.5091
lradius 63.7924
lwrist -18.8658
lhand -25.5845 0.192872
lfingers 7.12502
lthumb 0.947019 30.1705
rfemur -0.426064 2.4211 23.9266
rtibia 51.7828
rfoot -30.7368 4.63579
rtoes -6.18638
lfemur -31.5515 -1.89833 -20.9776
ltibia 50.5387
lfoot -17.1415 -7.6867
ltoes -12.0855
19
root 16.7649 16.2656 16.8287 886.918 -43.0322 -181.624
lowerback 38.8474 0.122345 2.04204
upperback 9.60367 -1.63578 -2.39569
thorax -8.39016 -1.68557 -2.82704
lowerneck -1.45837 2.22065 0.0780994
upperneck 0.920338 2.98593 -4.00623
head 0.590324 1.45164 -1.2149
rclavicle 6.04305e-014 2.82274e-014
rhumerus -35.704 -0.228092 -86.7611
rradius 60.3943
rwrist 8.70812
rhand -33.8149 11.9435
rfingers 7.12502
rthumb -7.00084 -17.9207
lclavicle 6.04305e-014 2.82274e-014
lhumerus -30.4715 19.646 78.3526
lradius 63.938
lwrist -19.05
lhand -25.3991 0.406952
lfingers 7.12502
lthumb 1.12607 30.3837
rfemur 0.337412 2.19049 23.8172
rtibia 51.5111
rfoot -30.6321 4.73314
rtoes -6.23888
lfemur -31.3851 -2.42549 -20.8668
ltibia 48.5574
lfoot -16.743 -7.73043
ltoes -12.2892
20
root 16.6772 16.2657 16.741 886.796 -43.1402 -181.624
lowerback 38.755 0.212281 1.99983
upperback 9.62757 -1.54124 -2.42974
thorax -8.3283 -1.63917 -2.88133
lowerneck -1.36373 2.17523 0.10806
upperneck 0.982726 2.92561 -4.02635
head 0.593319 1.42142 -1.2277
rclavicle -8.8658e-014 2.0276e-014
rhumerus -35.7357 -0.199658 -86.7989
rradius 60.6695
rwrist 8.67095
rhand -33.9982 11.8506
rfingers 7.12502
rthumb -7.1778 -18.0077
lclavicle -8.8658e-014 2.0276e-014
lhumerus -30.67 19.6572 78.2272
lradius 64.1425
lwrist -19.1967
lhand -25.2493 0.623328
lfingers 7.12502
lthumb 1.27077 30.5993
rfemur 1.05564 1.96829 23.732
rtibia 51.2914
rfoot -30.5507 4.84826
rtoes -6.24847
lfemur -31.2026 -2.94553 -20.6971
ltibia 46.6127
lfoot -16.476 -7.67536
ltoes -12.5192
21
root 16.5883 16.2612 16.6535 886.673 -43.2612 -181.6
lowerback 38.6813 0.280619 1.98918
upperback 9.63123 -1.45831 -2.47094
thorax -8.29641 -1.59688 -2.95447
lowerneck -1.26288 2.13389 0.121954
upperneck 1.05449 2.87109 -4.0305
head 0.597679 1.3941 -1.23269
rclavicle -1.43125e-014 -4.77083e-015
rhumerus -35.8041 -0.222321 -86.8537
rradius 60.9411
rwrist 8.69417
rhand -34.1279 11.7294
rfingers 7.12502
rthumb -7.30304 -18.1246
lclavicle -1.43125e-014 -4.77083e-015
lhumerus -30.8946 19.6557 78.0673
lradius 64.3363
lwrist -19.3749
lhand -25.0792 0.8674
lfingers 7.12502
lthumb 1.43512 30.8423
rfemur 1.74249 1.72921 23.6522
rtibia 51.1154
rfoot -30.5179 5.00167
rtoes -6.26809
lfemur -31.0135 -3.5415 -20.4957
ltibia 44.7271
lfoot -16.2899 -7.44549
ltoes -12.6619
22
root 16.4987 16.2523 16.5654 886.527 -43.3503 -181.555
lowerback 38.6124 0.365952 1.98755
upperback 9.65214 -1.35361 -2.49791
thorax -8.24465 -1.54622 -3.02564
lowerneck -1.25958 2.09207 0.0843438
upperneck 1.18278 2.81936 -4.01363
head 0.634669 1.3661 -1.22116
rclavicle 5.96354e-014 -3.97569e-015
rhumerus -35.8655 -0.301947 -86.9122
rradius 61.2338
rwrist 8.73568
rhand -34.2373 11.6186
rfingers 7.12502
rthumb -7.40864 -18.2316
lclavicle 5.96354e-014 -3.97569e-015
lhumerus -31.11 19.67 77.9569
lradius 64.5896
lwrist -19.5369
lhand -24.8877 1.06312
lfingers 7.12502
lthumb 1.62 31.0367
rfemur 2.42145 1.52408 23.5975
rtibia 50.9882
rfoot -30.5004 5.14791
rtoes -6.21468
lfemur -30.8017 -4.12862 -20.2466
ltibia 42.9201
lfoot -16.2739 -7.15782
ltoes -13.0842
23
root 16.4082 16.2392 16.4778 886.378 -43.4357 -181.508
lowerback 38.5635 0.437606 1.96706
upperback 9.6681 -1.27423 -2.52777
thorax -8.20657 -1.50775 -3.07938
lowerneck -1.26454 2.07029 0.0193154
upperneck 1.31114 2.79471 -3.96035
head 0.672558 1.35181 -1.19322
rclavicle -8.98507e-014 1.70955e-014
rhumerus -35.942 -0.323901 -86.9958
rradius 61.5707
rwrist 8.7517
rhand -34.317 11.4334
rfingers 7.12502
rthumb -7.48553 -18.4142
lclavicle -8.98507e-014 1.70955e-014
lhumerus -31.3456 19.7272 77.8053
lradius 64.8474
lwrist -19.7109
lhand -24.7768 1.26917
lfingers 7.12502
lthumb 1.72716 31.2419
rfemur 3.07804 1.31171 23.5398
rtibia 50.9048
rfoot -30.5285 5.30729
rtoes -6.25138
lfemur -30.584 -4.69022 -20.0026
ltibia 41.2106
lfoot -16.5223 -6.7657
ltoes -14.2622
24
root 16.317 16.2235 16.3895 886.254 -43.5096 -181.459
lowerback 38.4813 0.530582 1.96746
upperback 9.69355 -1.16059 -2.56306
thorax -8.14477 -1.45267 -3.16393
lowerneck -1.32572 2.0226 -0.0527769
upperneck 1.4764 2.73727 -3.88755
head 0.730229 1.32015 -1.15781
rclavicle -2.22639e-014 3.4191e-014
rhumerus -36.0086 -0.422038 -87.0602
rradius 61.9141
rwrist 8.79216
rhand -34.3169 11.2353
rfingers 7.12502
rthumb -7.48547 -18.6123
lclavicle -2.22639e-014 3.4191e-014
lhumerus -31.5706 19.6898 77.6875
lradius 65.1468
lwrist -19.8566
lhand -24.6535 1.41004
lfingers 7.12502
lthumb 1.8462 31.3818
rfemur 3.69008 1.10127 23.4753
rtibia 50.8611
rfoot -30.5438 5.48044
rtoes -6.18682
lfemur -30.3952 -5.19571 -19.7839
ltibia 39.6084
lfoot -16.8264 -6.28327
ltoes -15.5749
25
root 16.2257 16.2051 16.3017 886.103 -43.5803 -181.389
lowerback 38.4373 0.613588 1.96065
upperback 9.71107 -1.06119 -2.58318
thorax -8.10465 -1.40511 -3.22201
lowerneck -1.38247 1.98192 -0.13911
upperneck 1.64403 2.68931 -3.83365
head 0.788364 1.29275 -1.12599
rclavicle 8.74653e-015 9.54166e-015
rhumerus -36.0805 -0.513578 -87.1024
rradius 62.2685
rwrist 8.88683
rhand -34.2938 10.9545
rfingers 7.12502
rthumb -7.46314 -18.8938
lclavicle 8.74653e-015 9.54166e-015
lhumerus -31.8275 19.7375 77.579
lradius 65.4743
lwrist -20.0352
lhand -24.6187 1.51943
lfingers 7.12502
lthumb 1.87978 31.4909
rfemur 4.28929 0.876904 23.4165
rtibia 50.8475
rfoot -30.5885 5.67177
rtoes -6.19526
lfemur -30.2085 -5.6626 -19.5625
ltibia 38.1395
lfoot -17.1267 -5.75604
ltoes -16.0681
26
root 16.1337 16.1847 16.2131 885.981 -43.6389 -181.333
lowerback 38.3646 0.718152 1.93844
upperback 9.74605 -0.943234 -2.60467
thorax -8.03419 -1.34926 -3.28108
lowerneck -1.41128 1.93753 -0.245952
upperneck 1.74413 2.63413 -3.76576
head 0.820213 1.26313 -1.08688
rclavicle 7.39479e-014 2.06736e-014
rhumerus -36.1144 -0.655365 -87.1357
rradius 62.6388
rwrist 8.9597
rhand -34.2314 10.7065
rfingers 7.12502
rthumb -7.40291 -19.144
lclavicle 7.39479e-014 2.06736e-014
lhumerus -32.1076 19.7393 77.4819
lradius 65.865
lwrist -20.1863
lhand -24.5944 1.56315
lfingers 7.12502
lthumb 1.90328 31.5344
rfemur 4.86999 0.693209 23.3595
rtibia 50.8501
rfoot -30.6387 5.83701
rtoes -6.10216
lfemur -30.0415 -6.05406 -19.3603
ltibia 36.8345
lfoot -17.5006 -5.12719
ltoes -15.6819
